<?xml version="1.0" encoding="UTF-8"?>
<svg id="Layer_2" data-name="Layer 2" xmlns="http://www.w3.org/2000/svg" xmlns:xlink="http://www.w3.org/1999/xlink" viewBox="0 0 27.5 39.5" width="200" height="200">
  <defs>
    <style>
      .cls-1 {
        fill: url(#gradient_6);
        stroke-width: 0px;
      }
    </style>
    <linearGradient id="gradient_6" data-name="gradient#6" x1="-.66" y1="10.57" x2="27.66" y2="38.9" gradientUnits="userSpaceOnUse">
      <stop offset="0" stop-color="#26e1ff"/>
      <stop offset="1" stop-color="#dc00fa"/>
    </linearGradient>

    <filter id="red-glow" filterUnits="userSpaceOnUse"
            x="-50%" y="-50%" width="200%" height="200%">
       <!-- blur the text at different levels-->
      <feGaussianBlur in="SourceGraphic" stdDeviation="5" result="blur5"/>
      <feGaussianBlur in="SourceGraphic" stdDeviation="10" result="blur10"/>
      <feGaussianBlur in="SourceGraphic" stdDeviation="20" result="blur20"/>
      <feGaussianBlur in="SourceGraphic" stdDeviation="30" result="blur30"/>
      <feGaussianBlur in="SourceGraphic" stdDeviation="50" result="blur50"/>
      <!-- merge all the blurs except for the first one -->
      <feMerge result="blur-merged">
        <feMergeNode in="blur10"/>
        <feMergeNode in="blur20"/>
        <feMergeNode in="blur30"/>
        <feMergeNode in="blur50"/>
      </feMerge>
      <!-- recolour the merged blurs red-->
      <feColorMatrix result="red-blur" in="blur-merged" type="matrix"
                     values="1 0 0 0 0
                             0 0.06 0 0 0
                             0 0 0.44 0 0
                             0 0 0 1 0" />
      <feMerge>
        <feMergeNode in="red-blur"/>       <!-- largest blurs coloured red -->
        <feMergeNode in="blur5"/>          <!-- smallest blur left white -->
        <feMergeNode in="SourceGraphic"/>  <!-- original white text -->
      </feMerge>
    </filter>

  </defs>
  <g id="icons">
    <g id="hand_gesture" data-name="hand gesture">
      <g id="four_-_backward_hand" data-name="four  - backward hand">
        <path class="cls-1" d="m26.75,39.5c-.41,0-.75-.34-.75-.75v-3.25H1.5v3.25c0,.41-.34.75-.75.75s-.75-.34-.75-.75v-4.75h.78c-.52-1.26-.78-2.59-.78-3.97V12.25c0-1.79,1.46-3.25,3.25-3.25.64,0,1.24.19,1.75.51v-3.26c0-1.79,1.46-3.25,3.25-3.25.64,0,1.24.19,1.75.51v-.26c0-1.79,1.46-3.25,3.25-3.25s3.25,1.46,3.25,3.25v.26c.51-.32,1.11-.51,1.75-.51,1.79,0,3.25,1.46,3.25,3.25v10.8c2.82.37,5,2.79,5,5.7v6.78c0,1.54-.37,3.08-1.08,4.47h2.08v4.75c0,.41-.34.75-.75.75Zm-24.33-5.5h21.4c0-.12.03-.25.1-.37.71-1.26,1.08-2.68,1.08-4.1v-6.78c0-2.09-1.51-3.83-3.5-4.18v8.18c0,.41-.34.75-.75.75s-.75-.34-.75-.75V6.25c0-.96-.79-1.75-1.75-1.75s-1.75.79-1.75,1.75v12.5c0,.41-.34.75-.75.75s-.75-.34-.75-.75V3.25c0-.96-.79-1.75-1.75-1.75s-1.75.79-1.75,1.75v15.5c0,.41-.34.75-.75.75s-.75-.34-.75-.75V6.25c0-.96-.79-1.75-1.75-1.75s-1.75.79-1.75,1.75v12.5c0,.41-.34.75-.75.75s-.75-.34-.75-.75v-6.5c0-.96-.79-1.75-1.75-1.75s-1.75.79-1.75,1.75v17.78c0,1.39.31,2.73.92,3.97Z"/>
      </g>
    </g>
  </g>
</svg>