<?xml version="1.0" encoding="UTF-8"?>
<svg id="Layer_2" data-name="Layer 2" xmlns="http://www.w3.org/2000/svg" xmlns:xlink="http://www.w3.org/1999/xlink" viewBox="0 0 27.5 39.5">
  <defs>
    <style>
      .cls-1 {
        fill: url(#gradient_1);
        stroke-width: 0px;
      }
    </style>
    <linearGradient id="gradient_1" data-name="gradient#1" x1="-.66" y1="10.57" x2="27.66" y2="38.9" gradientUnits="userSpaceOnUse">
      <stop offset="0" stop-color="#fac600"/>
      <stop offset="1" stop-color="#ff4482"/>
    </linearGradient>
  </defs>
  <g id="icons">
    <g id="hand_gesture" data-name="hand gesture">
      <g id="five_-_backward_hand" data-name="five - backward hand">
        <path class="cls-1" d="m26.75,39.5c-.41,0-.75-.34-.75-.75v-3.25H1.5v3.25c0,.41-.34.75-.75.75s-.75-.34-.75-.75v-4.75h.78c-.52-1.26-.78-2.59-.78-3.97V12.25c0-1.79,1.46-3.25,3.25-3.25.64,0,1.24.19,1.75.51v-3.26c0-1.79,1.46-3.25,3.25-3.25.64,0,1.24.19,1.75.51v-.26c0-1.79,1.46-3.25,3.25-3.25s3.25,1.46,3.25,3.25v.26c.51-.32,1.11-.51,1.75-.51,1.79,0,3.25,1.46,3.25,3.25v12.63c1.05-1.16,2.57-1.88,4.25-1.88h.75v12.53c0,1.54-.37,3.08-1.08,4.47h2.08v4.75c0,.41-.34.75-.75.75Zm-24.33-5.5h21.4c0-.12.03-.25.1-.37.71-1.26,1.08-2.68,1.08-4.1v-10.96c-1.99.36-3.5,2.1-3.5,4.18v2c0,.41-.34.75-.75.75s-.75-.34-.75-.75V6.25c0-.96-.79-1.75-1.75-1.75s-1.75.79-1.75,1.75v12.5c0,.41-.34.75-.75.75s-.75-.34-.75-.75V3.25c0-.96-.79-1.75-1.75-1.75s-1.75.79-1.75,1.75v15.5c0,.41-.34.75-.75.75s-.75-.34-.75-.75V6.25c0-.96-.79-1.75-1.75-1.75s-1.75.79-1.75,1.75v12.5c0,.41-.34.75-.75.75s-.75-.34-.75-.75v-6.5c0-.96-.79-1.75-1.75-1.75s-1.75.79-1.75,1.75v17.78c0,1.39.31,2.73.92,3.97Z"/>
      </g>
    </g>
  </g>
</svg>