<?xml version="1.0" encoding="UTF-8"?>
<svg id="Layer_2" data-name="Layer 2" xmlns="http://www.w3.org/2000/svg" xmlns:xlink="http://www.w3.org/1999/xlink" viewBox="0 0 25.5 39.5">
  <defs>
    <style>
      .cls-1 {
        fill: url(#gradient_5);
        stroke-width: 0px;
      }
    </style>
    <linearGradient id="gradient_5" data-name="gradient#5" x1="1.5" y1="9.2" x2="27.43" y2="35.13" gradientUnits="userSpaceOnUse">
      <stop offset="0" stop-color="#ff8382"/>
      <stop offset="1" stop-color="#f429f9"/>
    </linearGradient>
  </defs>
  <g id="icons">
    <g id="hand_gesture" data-name="hand gesture">
      <g id="peace">
        <path class="cls-1" d="m22.75,39.5c-.41,0-.75-.34-.75-.75v-3.25H1.5v3.25c0,.41-.34.75-.75.75s-.75-.34-.75-.75v-4.75h1.86c-.57-1.36-.86-2.8-.86-4.3v-7.95s0-.07,0-.1c-.62-.58-1.01-1.4-1.01-2.31v-4.18c0-1.74,1.42-3.16,3.16-3.16h.18c.76,0,1.46.27,2.01.72.52-1.02,1.59-1.72,2.81-1.72h.18c.5,0,.97.12,1.39.32l-.87-7.86c-.08-.85.18-1.67.72-2.32C10.11.49,10.87.09,11.71.01c.84-.07,1.66.18,2.31.72.65.54,1.05,1.3,1.13,2.14,0,0,.57,6.77.97,11.49,1.26-4.8,3.13-11.88,3.15-11.98.21-.81.72-1.5,1.45-1.93.73-.43,1.58-.56,2.39-.35.82.21,1.51.72,1.94,1.45.43.73.55,1.58.35,2.39-.03.14-3.45,14.13-3.91,15.93,1.21.86,2.01,2.28,2.01,3.88v5.7c0,1.56-.32,3.12-.93,4.55h.93v4.75c0,.41-.34.75-.75.75Zm-19.24-5.5h17.41c.71-1.41,1.09-2.98,1.09-4.55v-5.7c0-1.79-1.46-3.25-3.25-3.25h-8.25v.31c0,1.2.98,2.19,2.19,2.19h4.81v4.5h-4.75c-1.79,0-3.25,1.46-3.25,3.25,0,.41-.34.75-.75.75s-.75-.34-.75-.75c0-2.62,2.13-4.75,4.75-4.75h3.25v-1.5h-3.31c-1.5,0-2.79-.9-3.36-2.18-.34.12-.7.18-1.07.18-1.02,0-1.91-.44-2.5-1.12-.58.69-1.45,1.12-2.41,1.12h-.18c-.23,0-.45-.02-.66-.07v7.27c0,1.51.34,2.96,1.01,4.3Zm4.65-21.5c-.92,0-1.66.75-1.66,1.66v5.18c0,.92.74,1.66,1.66,1.66.33,0,.6-.06.84-.16v-1.84h1.04c-.03-.08-.04-.16-.04-.25v-4.59c0-.92-.74-1.66-1.66-1.66h-.18Zm-5,1c-.92,0-1.66.75-1.66,1.66v4.18c0,.92.74,1.66,1.66,1.66h.18c.92,0,1.66-.75,1.66-1.66v-4.18c0-.92-.74-1.66-1.66-1.66h-.18Zm13.3,5.5h2.29c.47,0,.93.07,1.36.2.67-2.69,3.8-15.49,3.83-15.62.11-.44.05-.88-.18-1.27-.23-.38-.59-.65-1.02-.76-.43-.11-.88-.05-1.26.18-.38.23-.65.59-.76,1.02-.04.15-3.82,14.48-4.25,16.17,0,.03-.01.05-.02.08Zm-5,0h3.58s-.01-.03-.01-.05c-.01-.05-.02-.1-.03-.15-.15-1.62-1.34-15.8-1.34-15.8-.04-.43-.25-.83-.59-1.12-.34-.28-.77-.42-1.21-.38-.91.08-1.58.89-1.5,1.81l1.14,10.35c0,.07,0,.15,0,.22,0,.09.01.18.01.28v4.59c0,.09-.02.17-.04.25Z"/>
      </g>
    </g>
  </g>
</svg>