<?xml version="1.0" encoding="UTF-8"?>
<svg id="Layer_2" data-name="Layer 2" xmlns="http://www.w3.org/2000/svg" xmlns:xlink="http://www.w3.org/1999/xlink" viewBox="0 0 23.5 29.5">
  <defs>
    <style>
      .cls-1 {
        fill: url(#gradient_3);
      }

      .cls-1, .cls-2 {
        stroke-width: 0px;
      }

      .cls-2 {
        fill: none;
      }
    </style>
    <linearGradient id="gradient_3" data-name="gradient#3" x1="-.68" y1="4.53" x2="23.68" y2="28.88" gradientUnits="userSpaceOnUse">
      <stop offset="0" stop-color="#f8ac2c"/>
      <stop offset="1" stop-color="#1bb6ec"/>
    </linearGradient>
  </defs>
  <g id="icons">
    <g id="hand_gesture" data-name="hand gesture">
      <g id="clench">
        <g>
          <path class="cls-2" d="m15,3.16c0-.92-.74-1.66-1.66-1.66h-.18c-.92,0-1.66.75-1.66,1.66v5.84h3.5V3.16Z"/>
          <path class="cls-2" d="m8.16,11c.33,0,.6-.06.84-.16v-1.84h1v-4.84c0-.92-.74-1.66-1.66-1.66h-.18c-.92,0-1.66.75-1.66,1.66v5.18c0,.92.74,1.66,1.66,1.66Z"/>
          <path class="cls-2" d="m20,9.17v-5.01c0-.92-.74-1.66-1.66-1.66h-.18c-.92,0-1.66.75-1.66,1.66v4.84h2.25c.43,0,.85.06,1.25.17Z"/>
          <rect class="cls-2" x="1.5" y="3.5" width="3.5" height="7.5" rx="1.66" ry="1.66"/>
          <path class="cls-2" d="m18.75,10.5h-8.25v.31c0,1.2.98,2.19,2.19,2.19h4.81v4.5h-4.75c-1.79,0-3.25,1.46-3.25,3.25,0,.41-.34.75-.75.75s-.75-.34-.75-.75c0-2.62,2.13-4.75,4.75-4.75h3.25v-1.5h-3.31c-1.5,0-2.79-.9-3.36-2.18-.34.12-.7.18-1.07.18-1.02,0-1.91-.44-2.5-1.12-.58.69-1.45,1.12-2.41,1.12h-.18c-.61,0-1.18-.17-1.66-.47v7.67c0,1.51.34,2.96,1.01,4.3h18.41c.71-1.41,1.09-2.98,1.09-4.55v-5.7c0-1.79-1.46-3.25-3.25-3.25Z"/>
          <path class="cls-1" d="m23.5,13.75c0-1.6-.79-3.02-2.01-3.88,0-.04,0-.08,0-.12v-5.59c0-1.74-1.42-3.16-3.16-3.16h-.18c-.76,0-1.46.27-2.01.72-.52-1.02-1.59-1.72-2.81-1.72h-.18c-1.22,0-2.29.7-2.81,1.72-.55-.45-1.25-.72-2.01-.72h-.18c-1.22,0-2.29.7-2.81,1.72-.55-.45-1.25-.72-2.01-.72h-.18c-1.74,0-3.16,1.42-3.16,3.16v14.54c0,1.5.29,2.94.86,4.3h-.86v4.75c0,.41.34.75.75.75s.75-.34.75-.75v-3.25h20.5v3.25c0,.41.34.75.75.75s.75-.34.75-.75v-4.75h-.93c.61-1.44.93-2.99.93-4.55v-5.7Zm-7-9.59c0-.92.74-1.66,1.66-1.66h.18c.92,0,1.66.75,1.66,1.66v5.01c-.4-.11-.82-.17-1.25-.17h-2.25v-4.84Zm-5-1c0-.92.74-1.66,1.66-1.66h.18c.92,0,1.66.75,1.66,1.66v5.84h-3.5V3.16Zm-5,1c0-.92.74-1.66,1.66-1.66h.18c.92,0,1.66.75,1.66,1.66v4.84h-1v1.84c-.24.11-.51.16-.84.16-.92,0-1.66-.75-1.66-1.66v-5.18Zm-5,1c0-.92.74-1.66,1.66-1.66h.18c.92,0,1.66.75,1.66,1.66v4.18c0,.92-.74,1.66-1.66,1.66h-.18c-.92,0-1.66-.75-1.66-1.66v-4.18Zm20.5,14.29c0,1.58-.38,3.15-1.09,4.55H2.51c-.67-1.34-1.01-2.79-1.01-4.3v-7.67c.48.3,1.05.47,1.66.47h.18c.97,0,1.83-.44,2.41-1.12.59.69,1.48,1.12,2.5,1.12.37,0,.73-.06,1.07-.18.58,1.28,1.87,2.18,3.36,2.18h3.31v1.5h-3.25c-2.62,0-4.75,2.13-4.75,4.75,0,.41.34.75.75.75s.75-.34.75-.75c0-1.79,1.46-3.25,3.25-3.25h4.75v-4.5h-4.81c-1.2,0-2.19-.98-2.19-2.19v-.31h8.25c1.79,0,3.25,1.46,3.25,3.25v5.7Z"/>
        </g>
      </g>
    </g>
  </g>
</svg>